<?xml version="1.0" encoding="UTF-8" standalone="no"?>
<!-- Created with Inkscape (http://www.inkscape.org/) -->

<svg
   xmlns:dc="http://purl.org/dc/elements/1.1/"
   xmlns:cc="http://creativecommons.org/ns#"
   xmlns:rdf="http://www.w3.org/1999/02/22-rdf-syntax-ns#"
   xmlns:svg="http://www.w3.org/2000/svg"
   xmlns="http://www.w3.org/2000/svg"
   xmlns:sodipodi="http://sodipodi.sourceforge.net/DTD/sodipodi-0.dtd"
   xmlns:inkscape="http://www.inkscape.org/namespaces/inkscape"
   width="259.78598mm"
   height="259.78598mm"
   viewBox="0 0 259.78598 259.78598"
   version="1.1"
   id="svg8"
   inkscape:version="0.92.3 (2405546, 2018-03-11)"
   sodipodi:docname="incorrect-icon.svg">
  <defs
     id="defs2" />
  <sodipodi:namedview
     id="base"
     pagecolor="#ffffff"
     bordercolor="#666666"
     borderopacity="1.0"
     inkscape:pageopacity="0.0"
     inkscape:pageshadow="2"
     inkscape:zoom="0.24748737"
     inkscape:cx="-505.66939"
     inkscape:cy="-794.82045"
     inkscape:document-units="mm"
     inkscape:current-layer="layer1"
     showgrid="false"
     fit-margin-top="0"
     fit-margin-left="0"
     fit-margin-right="0"
     fit-margin-bottom="0"
     inkscape:window-width="2472"
     inkscape:window-height="1384"
     inkscape:window-x="88"
     inkscape:window-y="28"
     inkscape:window-maximized="1" />
  <metadata
     id="metadata5">
    <rdf:RDF>
      <cc:Work
         rdf:about="">
        <dc:format>image/svg+xml</dc:format>
        <dc:type
           rdf:resource="http://purl.org/dc/dcmitype/StillImage" />
        <dc:title></dc:title>
      </cc:Work>
    </rdf:RDF>
  </metadata>
  <g
     inkscape:label="Layer 1"
     inkscape:groupmode="layer"
     id="layer1"
     transform="translate(-259.78598,346.58502)">
    <rect
       style="opacity:0.51999996;fill:#ffffff;fill-opacity:1;stroke:none;stroke-width:4.96499968;stroke-linecap:round;stroke-linejoin:round;stroke-miterlimit:4;stroke-dasharray:none;stroke-dashoffset:0;stroke-opacity:1"
       id="rect843"
       width="259.78598"
       height="259.78598"
       x="259.78598"
       y="-346.58502" />
    <g
       id="g848"
       transform="translate(291.3869,-361.22761)">
      <path
         inkscape:connector-curvature="0"
         id="path840"
         d="m 23.033823,228.49384 c -4.84765,-2.58319 -7.44322,-9.5589 -6.76195,-18.17294 0.66386,-8.39386 1.53208,-10.60008 7.37032,-18.73048 2.56761,-3.57564 5.13268,-7.93143 5.70015,-9.67953 l 1.03177,-3.17835 -14.62669,-1.80069 c -15.51341009,-1.90983 -24.0321201,-4.97143 -25.93541,-9.32104 -1.65275,-3.77719 -0.65891,-9.39938 2.2111899,-12.50851 2.01821,-2.18618 2.73545,-4.5641 2.96296,-9.82263 0.24521,-5.66545 0.84887,-7.4375 3.29124,-9.66036 2.39696001,-2.18147 2.91524,-3.64525 2.60936001,-7.36919 -0.27533,-3.35284 0.32145999,-5.55478 2.14336999,-7.90668 1.38876,-1.79282 2.54629,-5.0684 2.57232,-7.27907 0.0711,-6.03012 3.70297,-8.41608 13.1801301,-8.6584 12.34255,-0.31562 29.8041,3.42784 41.56586,8.91096 5.63214,2.62562 12.72464,5.34549 15.76107,6.04417 l 5.52074,1.2703 -1.51528,23.59979 c -1.23989,19.31129 -1.95421,24.52845 -3.9327,28.71014 -2.55142,5.39399 -10.62405,12.98743 -24.9732,23.49099 -9.37022,6.85888 -16.64222,16.61259 -18.79382,25.20737 -2.55044,10.18814 -2.79264,10.36506 -9.38129,6.85416 z"
         style="fill:#d40000;stroke-width:1.24527514" />
      <path
         inkscape:connector-curvature="0"
         id="path832"
         d="m 86.002303,171.96125 c -1.13583,-0.5662 -0.99209,-7.19879 0.58907,-27.19071 2.38533,-30.15843 1.27275,-28.013 14.003027,-27.00613 11.20837,0.8865 11.40318,1.08906 11.45669,11.91223 0.0282,5.26611 0.35299,17.10634 0.72669,26.31159 0.57773,14.23543 0.40853,16.87959 -1.13065,17.69204 -1.89227,0.99862 -23.036457,-0.41874 -25.644867,-1.71904 z"
         style="fill:#000000;stroke-width:1.24527514" />
      <path
         inkscape:connector-curvature="0"
         d="m 170.29485,150.56769 c -3.40933,-0.85706 -5.31619,-6.64703 -3.0113,-9.14362 0.71564,-0.77519 8.57275,-1.69895 18.70356,-2.19897 l 17.46959,-0.8622 0.1379,3.43903 c 0.088,2.20998 -0.83777,4.11444 -2.59133,5.32898 -3.10717,2.15223 -25.74103,4.68539 -30.70785,3.43681 z m 1.89594,16.14034 c -5.1051,-0.27943 -7.55613,-1.83993 -7.67784,-4.88819 -0.15908,-3.98155 2.77442,-4.88173 19.44879,-5.96814 l 16.52658,-1.07679 -0.22168,3.73882 c -0.14919,2.56005 -1.18252,4.23231 -3.27288,5.30367 -3.20997,1.64508 -17.3837,3.29677 -24.80494,2.89056 z m -23.75246,13.8913 c -2.77333,-0.78906 -8.33648,-2.77265 -12.36274,-4.40799 -4.02618,-1.63532 -8.37842,-2.93106 -9.67168,-2.87942 -6.31911,0.25242 -6.28471,0.37116 -7.27191,-25.07983 -1.09945,-28.35572 -0.55452,-30.45511 10.90381,-41.96417 22.53511,-22.635263 26.75053,-28.948561 27.73392,-41.536511 0.41559,-5.310016 0.84525,-6.116272 3.31873,-6.215043 1.56295,-0.06241 4.58385,1.237338 6.71305,2.888368 8.39875,6.512846 9.24258,20.150621 2.06218,33.327445 -2.35192,4.315861 -4.28202,9.529721 -4.28923,11.586351 l -0.0141,3.73933 16.82409,-0.0108 c 9.78906,-0.006 18.00223,0.58625 19.64138,1.41688 3.67219,1.86086 6.59167,10.16855 5.18573,14.75622 -1.43809,4.69216 -7.0795,6.6036 -21.43289,7.26201 -12.16078,0.55782 -17.44902,-0.88886 -17.60584,-4.81638 -0.1765,-4.41983 3.38556,-5.76177 16.70619,-6.29375 12.63426,-0.50458 12.97742,-0.59207 11.58856,-2.95535 -1.29548,-2.20438 -2.70462,-2.38451 -14.85769,-1.89917 -12.5655,0.50183 -13.59878,0.73499 -16.11405,3.63622 -2.09654,2.41816 -2.56531,4.30372 -2.13118,8.57264 0.36476,3.58704 -0.1266,6.53569 -1.42594,8.55799 -2.12891,3.3135 -2.39394,11.89836 -0.40147,13.02223 0.68937,0.38895 0.18779,2.5874 -1.16478,5.10388 -1.98677,3.69696 -2.12999,5.04433 -0.87466,8.22999 1.18563,3.00892 1.13508,4.37873 -0.24098,6.51949 -0.95769,1.49062 -1.66809,4.54537 -1.57843,6.78836 0.18496,4.63549 -1.03544,4.98561 -9.24113,2.65092 z m 18.41698,0.86594 c -3.10431,-1.42558 -4.17806,-6.81347 -1.55853,-7.82133 0.84374,-0.32466 8.1075,-1.01778 16.14159,-1.54022 14.03668,-0.91277 14.6112,-0.8498 14.70802,1.61198 0.23156,5.89568 -2.37596,7.34679 -14.79246,8.23166 -7.01568,0.49998 -12.77725,0.30842 -14.49862,-0.48211 z"
         style="fill:#44aa00;stroke-width:1.24527514"
         id="path826" />
    </g>
  </g>
</svg>
